<svg width="32" height="23" viewBox="0 0 32 23" fill="none" xmlns="http://www.w3.org/2000/svg">
<path d="M23.2161 19.8359C26.6029 24.5776 31.9523 21.0757 30.6672 16.449C28.7371 9.50068 27.6869 5.63209 27.1406 3.58963C26.8193 2.38854 25.7307 1.54675 24.4874 1.54675H7.0424C5.79911 1.54675 4.71555 2.39322 4.41323 3.5992C3.27612 8.13558 2.26155 12.116 1.05792 16.449C-0.227268 21.0757 5.12218 24.5776 8.50906 19.8359" stroke="white" stroke-width="1.63628" stroke-linecap="round" stroke-linejoin="round"/>
<path d="M23.8933 7.64307L23.9083 7.65661" stroke="white" stroke-width="1.63628" stroke-linecap="round" stroke-linejoin="round"/>
<path d="M21.8477 5.61108L21.8627 5.62463" stroke="white" stroke-width="1.63628" stroke-linecap="round" stroke-linejoin="round"/>
<path d="M21.8477 9.67529L21.8627 9.68884" stroke="white" stroke-width="1.63628" stroke-linecap="round" stroke-linejoin="round"/>
<path d="M19.8291 7.64307L19.8441 7.65661" stroke="white" stroke-width="1.63628" stroke-linecap="round" stroke-linejoin="round"/>
<path d="M8.99121 5.61108V9.67534" stroke="white" stroke-width="1.63628" stroke-linecap="round" stroke-linejoin="round"/>
<path d="M6.95898 7.64307H11.0232" stroke="white" stroke-width="1.63628" stroke-linecap="round" stroke-linejoin="round"/>
<path d="M10.346 17.8038C11.8424 17.8038 13.0555 16.5907 13.0555 15.0943C13.0555 13.5978 11.8424 12.3848 10.346 12.3848C8.84956 12.3848 7.63647 13.5978 7.63647 15.0943C7.63647 16.5907 8.84956 17.8038 10.346 17.8038Z" stroke="white" stroke-width="1.63628" stroke-linecap="round" stroke-linejoin="round"/>
<path d="M21.1839 17.8038C22.6803 17.8038 23.8934 16.5907 23.8934 15.0943C23.8934 13.5978 22.6803 12.3848 21.1839 12.3848C19.6874 12.3848 18.4744 13.5978 18.4744 15.0943C18.4744 16.5907 19.6874 17.8038 21.1839 17.8038Z" stroke="white" stroke-width="1.63628" stroke-linecap="round" stroke-linejoin="round"/>
</svg>
