<svg width="25" height="25" viewBox="0 0 25 25" fill="none" xmlns="http://www.w3.org/2000/svg">
<path d="M11.8625 4.54675H4.86255C4.33212 4.54675 3.82341 4.75747 3.44834 5.13254C3.07326 5.50761 2.86255 6.01632 2.86255 6.54675V20.5468C2.86255 21.0772 3.07326 21.5859 3.44834 21.961C3.82341 22.336 4.33212 22.5468 4.86255 22.5468H18.8625C19.393 22.5468 19.9017 22.336 20.2768 21.961C20.6518 21.5859 20.8625 21.0772 20.8625 20.5468V13.5468" stroke="white" stroke-width="2" stroke-linecap="round" stroke-linejoin="round"/>
<path d="M19.3625 3.04674C19.7604 2.64891 20.2999 2.42542 20.8625 2.42542C21.4252 2.42542 21.9647 2.64891 22.3625 3.04674C22.7604 3.44456 22.9839 3.98413 22.9839 4.54674C22.9839 5.10934 22.7604 5.64891 22.3625 6.04674L12.8625 15.5467L8.86255 16.5467L9.86255 12.5467L19.3625 3.04674Z" stroke="white" stroke-width="2" stroke-linecap="round" stroke-linejoin="round"/>
</svg>
