<svg width="34" height="28" viewBox="0 0 34 28" fill="none" xmlns="http://www.w3.org/2000/svg">
<path d="M5.4608 28C3.49861 28 2.25473 27.4546 1.46635 26.8086C-0.0753694 25.5455 -1.16158 22.8613 2.30728 17.1629L3.83148 14.6796C4.0242 14.3495 4.0242 13.6605 3.83148 13.3304L2.30728 10.8472C-1.1791 5.14869 -0.0753694 2.45017 1.46635 1.20139C2.99055 -0.0617506 6.28421 -0.966042 13.2219 1.89037L28.2186 8.03381C31.9502 9.55532 34 11.6797 34 14.005C34 16.3303 31.9502 18.4547 28.2361 19.9762L13.2395 26.1196C9.84068 27.512 7.31787 28 5.4608 28ZM5.4608 2.16309C4.51474 2.16309 3.77892 2.34969 3.32342 2.72289C2.04449 3.75637 2.55256 6.44054 4.6549 9.8711L6.1791 12.3687C6.73972 13.3017 6.73972 14.7083 6.1791 15.6413L4.6549 18.1246C2.55256 21.5695 2.04449 24.2393 3.32342 25.2728C4.58482 26.3206 7.86097 25.9043 12.0657 24.1819L27.0623 18.0384C29.8128 16.9188 31.3721 15.4404 31.3721 13.9907C31.3721 12.5409 29.7953 11.0625 27.0448 9.94287L12.0481 3.81379C9.38517 2.72289 7.09011 2.16309 5.4608 2.16309Z" fill="white"/>
<path d="M14.9732 15.0817H5.51257C4.79427 15.0817 4.19861 14.5937 4.19861 14.0052C4.19861 13.4167 4.79427 12.9286 5.51257 12.9286H14.9732C15.6915 12.9286 16.2872 13.4167 16.2872 14.0052C16.2872 14.5937 15.6915 15.0817 14.9732 15.0817Z" fill="white"/>
</svg>
