<svg width="31" height="25" viewBox="0 0 31 25" fill="none" xmlns="http://www.w3.org/2000/svg">
<path d="M15.8625 13.5468C16.5529 13.5468 17.1125 13.099 17.1125 12.5468C17.1125 11.9945 16.5529 11.5468 15.8625 11.5468C15.1722 11.5468 14.6125 11.9945 14.6125 12.5468C14.6125 13.099 15.1722 13.5468 15.8625 13.5468Z" stroke="white" stroke-width="2" stroke-linecap="round" stroke-linejoin="round"/>
<path d="M15.8625 6.54675C16.5529 6.54675 17.1125 6.09904 17.1125 5.54675C17.1125 4.99447 16.5529 4.54675 15.8625 4.54675C15.1722 4.54675 14.6125 4.99447 14.6125 5.54675C14.6125 6.09904 15.1722 6.54675 15.8625 6.54675Z" stroke="white" stroke-width="2" stroke-linecap="round" stroke-linejoin="round"/>
<path d="M15.8625 20.5468C16.5529 20.5468 17.1125 20.099 17.1125 19.5468C17.1125 18.9945 16.5529 18.5468 15.8625 18.5468C15.1722 18.5468 14.6125 18.9945 14.6125 19.5468C14.6125 20.099 15.1722 20.5468 15.8625 20.5468Z" stroke="white" stroke-width="2" stroke-linecap="round" stroke-linejoin="round"/>
</svg>
